<svg xmlns="http://www.w3.org/2000/svg" width="20" height="18.677" viewBox="0 0 20 18.677">
  <path id="pending_payment" data-name="pending payment" d="M15.181,18.677a4.487,4.487,0,0,1-3.365-1.6A5.338,5.338,0,0,1,10.47,13.6V10.57a.794.794,0,0,1,.47-.724l3.9-1.742a1.229,1.229,0,0,1,.793,0l3.9,1.742a.793.793,0,0,1,.47.724V13.6a5.338,5.338,0,0,1-1.346,3.479,4.487,4.487,0,0,1-3.365,1.6Zm-3.123-7.591V13.6a3.465,3.465,0,0,0,3.123,3.493h.107A3.466,3.466,0,0,0,18.411,13.6V11.086l-3.177-1.42ZM3.125,14.621A3.121,3.121,0,0,1,0,11.511v-8.4A3.121,3.121,0,0,1,3.125,0h13.75A3.122,3.122,0,0,1,20,3.111V7.238a.781.781,0,0,1-1.562,0V5.683H1.563v5.828a1.561,1.561,0,0,0,1.562,1.555h5.2a.778.778,0,1,1,0,1.555ZM1.563,3.111V4.127H18.438V3.111a1.561,1.561,0,0,0-1.562-1.555H3.125A1.561,1.561,0,0,0,1.563,3.111Z" fill="#727c8e"/>
</svg>
