<svg xmlns="http://www.w3.org/2000/svg" width="20.334" height="21.471" viewBox="0 0 20.334 21.471">
  <g id="settings-svgrepo-com" transform="translate(-1.819 -1.25)">
    <circle id="Ellipse_278" data-name="Ellipse 278" cx="2.996" cy="2.996" r="2.996" transform="translate(8.991 8.99)" fill="none" stroke="#5d5d5d" stroke-width="1.5"/>
    <path id="Path_12522" data-name="Path 12522" d="M13.749,2.152A4.981,4.981,0,0,0,11.986,2a4.981,4.981,0,0,0-1.763.152A2,2,0,0,0,9.143,3.233,2.461,2.461,0,0,0,9,4.095,1.578,1.578,0,0,1,6.646,5.454a2.461,2.461,0,0,0-.818-.307,2,2,0,0,0-1.476.4A4.98,4.98,0,0,0,3.339,6.993a4.981,4.981,0,0,0-.75,1.6,2,2,0,0,0,.4,1.476,2.46,2.46,0,0,0,.675.555,1.578,1.578,0,0,1,0,2.718,2.463,2.463,0,0,0-.675.555,2,2,0,0,0-.4,1.476,4.98,4.98,0,0,0,.75,1.6,4.98,4.98,0,0,0,1.013,1.451,2,2,0,0,0,1.476.4,2.462,2.462,0,0,0,.818-.307A1.578,1.578,0,0,1,9,19.876a2.461,2.461,0,0,0,.143.862,2,2,0,0,0,1.081,1.081,4.982,4.982,0,0,0,1.763.152,4.982,4.982,0,0,0,1.763-.152,2,2,0,0,0,1.081-1.081,2.461,2.461,0,0,0,.143-.862,1.578,1.578,0,0,1,2.354-1.359,2.461,2.461,0,0,0,.818.307,2,2,0,0,0,1.476-.4,4.98,4.98,0,0,0,1.013-1.451,4.979,4.979,0,0,0,.75-1.6,2,2,0,0,0-.4-1.476,2.461,2.461,0,0,0-.675-.555,1.578,1.578,0,0,1,0-2.718,2.46,2.46,0,0,0,.675-.555,2,2,0,0,0,.4-1.476,4.979,4.979,0,0,0-.75-1.6,4.98,4.98,0,0,0-1.013-1.451,2,2,0,0,0-1.476-.4,2.462,2.462,0,0,0-.818.307,1.578,1.578,0,0,1-2.354-1.359,2.46,2.46,0,0,0-.143-.862A2,2,0,0,0,13.749,2.152Z" fill="none" stroke="#5d5d5d" stroke-width="1.5"/>
  </g>
</svg>
