<svg xmlns="http://www.w3.org/2000/svg" width="39" height="39" viewBox="0 0 39 39">
  <g id="Avatar" transform="translate(-175.5 -134.5)">
    <circle id="Ellipse_288" data-name="Ellipse 288" cx="19.5" cy="19.5" r="19.5" transform="translate(175.5 134.5)" fill="#e0e0e0"/>
    <path id="user-svgrepo-com" d="M4,22.862a1.623,1.623,0,0,0,.462,1.155,1.446,1.446,0,0,0,1.155.462H21.662a1.593,1.593,0,0,0,1.13-.462,1.446,1.446,0,0,0,.462-1.155,5.592,5.592,0,0,0-.539-2.336A7.7,7.7,0,0,0,21.3,18.42a13.192,13.192,0,0,0-2-1.72,9.344,9.344,0,0,0-2.31-1.207,6.361,6.361,0,0,0,2.233-2.336,6.3,6.3,0,0,0,.822-3.132V8.434A6.188,6.188,0,0,0,18.171,3.89a6.188,6.188,0,0,0-4.544-1.874A6.188,6.188,0,0,0,9.083,3.89,6.188,6.188,0,0,0,7.209,8.434v1.592a6.2,6.2,0,0,0,.822,3.132,6.634,6.634,0,0,0,2.233,2.336A9.935,9.935,0,0,0,7.953,16.7a12.93,12.93,0,0,0-2,1.72,7.452,7.452,0,0,0-1.412,2.105A6.033,6.033,0,0,0,4,22.862Z" transform="translate(180.951 140.296)"/>
  </g>
</svg>
