<svg id="download-on-the-app-store" xmlns="http://www.w3.org/2000/svg" xmlns:xlink="http://www.w3.org/1999/xlink" width="235.182" height="69.684" viewBox="0 0 235.182 69.684">
  <defs>
    <linearGradient id="linear-gradient" x1="-1.199" y1="2.436" x2="-1.199" y2="1.535" gradientUnits="objectBoundingBox">
      <stop offset="0" stop-color="#1a1a1a" stop-opacity="0.102"/>
      <stop offset="0.123" stop-color="#212121" stop-opacity="0.153"/>
      <stop offset="0.308" stop-color="#353535" stop-opacity="0.227"/>
      <stop offset="0.532" stop-color="#575757" stop-opacity="0.318"/>
      <stop offset="0.783" stop-color="#858585" stop-opacity="0.42"/>
      <stop offset="1" stop-color="#b3b3b3" stop-opacity="0.51"/>
    </linearGradient>
  </defs>
  <path id="Path_12483" data-name="Path 12483" d="M235.633,63.467a6.675,6.675,0,0,1-6.683,6.674H10.253a6.684,6.684,0,0,1-6.691-6.674V10.244a6.692,6.692,0,0,1,6.691-6.683H228.948a6.682,6.682,0,0,1,6.683,6.683l0,53.223Z" transform="translate(-2.011 -2.01)" fill="#fff"/>
  <path id="Path_12484" data-name="Path 12484" d="M226.939,69.684H8.243A8.243,8.243,0,0,1,0,61.459V8.235A8.249,8.249,0,0,1,8.243,0H226.937a8.252,8.252,0,0,1,8.243,8.235V61.457A8.242,8.242,0,0,1,226.939,69.684Z" transform="translate(0 0)" fill="#a6a6a6"/>
  <path id="Path_12485" data-name="Path 12485" d="M235.633,63.467a6.675,6.675,0,0,1-6.683,6.674H10.253a6.684,6.684,0,0,1-6.691-6.674V10.244a6.692,6.692,0,0,1,6.691-6.683H228.948a6.682,6.682,0,0,1,6.683,6.683l0,53.223Z" transform="translate(-2.011 -2.01)"/>
  <path id="Path_12486" data-name="Path 12486" d="M81.413,48.516a10.1,10.1,0,0,1,4.813-8.476,10.35,10.35,0,0,0-8.15-4.405c-3.429-.361-6.754,2.051-8.5,2.051-1.781,0-4.471-2.016-7.37-1.957A10.852,10.852,0,0,0,53.071,41.3c-3.95,6.836-1,16.882,2.78,22.408,1.893,2.708,4.1,5.728,7,5.622,2.832-.115,3.89-1.8,7.309-1.8,3.387,0,4.38,1.8,7.333,1.736,3.04-.047,4.954-2.718,6.78-5.449a22.335,22.335,0,0,0,3.1-6.313,9.773,9.773,0,0,1-5.961-8.981ZM75.835,32a9.941,9.941,0,0,0,2.276-7.125,10.132,10.132,0,0,0-6.55,3.388,9.461,9.461,0,0,0-2.336,6.862A8.369,8.369,0,0,0,75.835,32Z" transform="translate(-28.899 -14.041)" fill="#fff"/>
  <path id="Path_12487" data-name="Path 12487" d="M369.248,0H252.108L297.99,69.684h71.259a8.249,8.249,0,0,0,8.243-8.232V8.235A8.25,8.25,0,0,0,369.248,0Z" transform="translate(-142.309 0)" fill="url(#linear-gradient)"/>
  <g id="Group_16939" data-name="Group 16939" transform="translate(73.957 31.365)">
    <path id="Path_12488" data-name="Path 12488" d="M189.395,95.549h-3.958l-2.168-6.812h-7.537l-2.066,6.812h-3.854l7.469-23.19h4.612Zm-6.78-9.67-1.961-6.055q-.311-.928-1.17-4.369h-.07q-.345,1.479-1.1,4.369l-1.928,6.055Zm25.95,1.1a9.467,9.467,0,0,1-2.318,6.742,6.8,6.8,0,0,1-5.156,2.2,5.162,5.162,0,0,1-4.776-2.372v8.774H192.6V84.324q0-2.679-.138-5.5h3.268l.207,2.65h.07a6.612,6.612,0,0,1,10.582-.657A9.245,9.245,0,0,1,208.564,86.983Zm-3.786.136a6.892,6.892,0,0,0-1.1-4.027,3.808,3.808,0,0,0-3.235-1.65,3.865,3.865,0,0,0-2.494.911,4.227,4.227,0,0,0-1.462,2.393,4.85,4.85,0,0,0-.173,1.131v2.79a4.473,4.473,0,0,0,1.119,3.081A3.715,3.715,0,0,0,200.339,93a3.809,3.809,0,0,0,3.268-1.617A7.116,7.116,0,0,0,204.779,87.119Zm23.024-.136a9.468,9.468,0,0,1-2.318,6.742,6.8,6.8,0,0,1-5.158,2.2,5.162,5.162,0,0,1-4.776-2.372v8.774h-3.716V84.324q0-2.679-.138-5.5h3.268l.207,2.65h.07a6.614,6.614,0,0,1,10.584-.657,9.254,9.254,0,0,1,1.977,6.162Zm-3.788.136a6.893,6.893,0,0,0-1.1-4.027,3.8,3.8,0,0,0-3.232-1.65,3.881,3.881,0,0,0-2.5.911,4.224,4.224,0,0,0-1.461,2.393,4.962,4.962,0,0,0-.174,1.131v2.79a4.488,4.488,0,0,0,1.117,3.081A3.723,3.723,0,0,0,219.575,93a3.8,3.8,0,0,0,3.268-1.617A7.116,7.116,0,0,0,224.015,87.119Zm25.3,1.926a6.194,6.194,0,0,1-2.062,4.818,9.141,9.141,0,0,1-6.318,2.03,11.031,11.031,0,0,1-6.006-1.445l.859-3.1a10.341,10.341,0,0,0,5.369,1.446,5.066,5.066,0,0,0,3.268-.946,3.091,3.091,0,0,0,1.173-2.527,3.238,3.238,0,0,0-.966-2.375,8.953,8.953,0,0,0-3.2-1.788q-6.092-2.271-6.094-6.643a5.864,5.864,0,0,1,2.151-4.679,8.507,8.507,0,0,1,5.7-1.824,11.259,11.259,0,0,1,5.266,1.1l-.933,3.029a9.209,9.209,0,0,0-4.457-1.066,4.533,4.533,0,0,0-3.075.964,2.757,2.757,0,0,0-.933,2.1,2.84,2.84,0,0,0,1.068,2.271A12.037,12.037,0,0,0,243.49,82.2a11.428,11.428,0,0,1,4.4,2.819,5.875,5.875,0,0,1,1.417,4.022Zm12.318-7.429h-4.1v8.119q0,3.1,2.168,3.095a6.53,6.53,0,0,0,1.651-.173l.1,2.821a8.422,8.422,0,0,1-2.89.411,4.455,4.455,0,0,1-3.442-1.344q-1.237-1.344-1.239-4.508V81.609h-2.44V78.821h2.44V75.759l3.65-1.1v4.163h4.1Zm18.445,5.435a9.171,9.171,0,0,1-2.2,6.331,7.854,7.854,0,0,1-6.125,2.546,7.487,7.487,0,0,1-5.869-2.44,8.893,8.893,0,0,1-2.186-6.158,9.1,9.1,0,0,1,2.254-6.364,7.814,7.814,0,0,1,6.076-2.478,7.644,7.644,0,0,1,5.918,2.443,8.777,8.777,0,0,1,2.135,6.12Zm-3.852.085a7.486,7.486,0,0,0-1-3.945,3.679,3.679,0,0,0-3.34-1.992,3.732,3.732,0,0,0-3.408,1.992,7.61,7.61,0,0,0-1,4.015,7.464,7.464,0,0,0,1,3.947,3.811,3.811,0,0,0,6.716-.033,7.516,7.516,0,0,0,1.027-3.984Zm15.937-5.041a6.468,6.468,0,0,0-1.171-.1,3.507,3.507,0,0,0-3.029,1.481,5.578,5.578,0,0,0-.927,3.3v8.774h-3.716V84.094q0-2.633-.108-5.264h3.237l.136,3.2h.1a5.736,5.736,0,0,1,1.858-2.65,4.494,4.494,0,0,1,2.686-.9,5.968,5.968,0,0,1,.929.068l0,3.544Zm16.62,4.3a8.714,8.714,0,0,1-.136,1.685H297.494a4.849,4.849,0,0,0,1.618,3.788,5.532,5.532,0,0,0,3.646,1.168,12.333,12.333,0,0,0,4.511-.789l.582,2.577a13.949,13.949,0,0,1-5.607,1.033,8.13,8.13,0,0,1-6.111-2.286,8.452,8.452,0,0,1-2.219-6.141,9.576,9.576,0,0,1,2.067-6.294,7.123,7.123,0,0,1,5.848-2.682,6.234,6.234,0,0,1,5.475,2.682A9.023,9.023,0,0,1,308.778,86.4Zm-3.544-.964a5.029,5.029,0,0,0-.722-2.856,3.245,3.245,0,0,0-2.96-1.551,3.523,3.523,0,0,0-2.958,1.514,5.549,5.549,0,0,0-1.1,2.889l7.739,0Z" transform="translate(-169.812 -72.016)" fill="#fff"/>
  </g>
  <g id="Group_16940" data-name="Group 16940" transform="translate(76.132 11.419)">
    <path id="Path_12489" data-name="Path 12489" d="M177.478,38.309a23.735,23.735,0,0,1-2.672-.136V26.962a20.235,20.235,0,0,1,3.146-.237c4.262,0,6.224,2.1,6.224,5.513C184.177,36.18,181.859,38.309,177.478,38.309Zm.624-10.147a7.457,7.457,0,0,0-1.471.118V36.8a9.647,9.647,0,0,0,1.234.051c2.792,0,4.382-1.589,4.382-4.566C182.247,29.635,180.809,28.162,178.1,28.162Zm12.191,10.232a3.912,3.912,0,0,1-3.958-4.227,4,4,0,0,1,4.094-4.346,3.881,3.881,0,0,1,3.958,4.212,4.027,4.027,0,0,1-4.094,4.362Zm.07-7.239c-1.319,0-2.165,1.234-2.165,2.959,0,1.692.863,2.926,2.147,2.926s2.147-1.319,2.147-2.961C192.493,32.407,191.647,31.156,190.363,31.156Zm17.721-1.166-2.571,8.218h-1.675l-1.065-3.569a27.052,27.052,0,0,1-.661-2.654h-.035a17.785,17.785,0,0,1-.659,2.654l-1.133,3.569h-1.692l-2.419-8.218h1.877l.931,3.907q.329,1.4.558,2.638h.035a27.067,27.067,0,0,1,.676-2.621l1.168-3.923h1.489l1.117,3.839c.27.931.49,1.844.661,2.706h.049a23.654,23.654,0,0,1,.558-2.706l1-3.839,1.794,0Zm9.465,8.218h-1.827V33.489c0-1.453-.558-2.182-1.658-2.182a1.9,1.9,0,0,0-1.827,2.013v4.888h-1.827V32.339c0-.727-.017-1.506-.068-2.351h1.607l.085,1.269h.051a2.953,2.953,0,0,1,2.606-1.436c1.726,0,2.859,1.319,2.859,3.466l0,4.921Zm5.037,0h-1.828V26.219h1.828Zm6.66.186a3.913,3.913,0,0,1-3.958-4.227,4,4,0,0,1,4.093-4.346,3.88,3.88,0,0,1,3.958,4.212,4.025,4.025,0,0,1-4.093,4.362Zm.068-7.239c-1.32,0-2.165,1.234-2.165,2.959,0,1.692.865,2.926,2.146,2.926s2.147-1.319,2.147-2.961C231.444,32.407,230.6,31.156,229.314,31.156Zm11.227,7.052-.132-.946h-.049a2.807,2.807,0,0,1-2.4,1.133,2.39,2.39,0,0,1-2.519-2.419c0-2.028,1.759-3.077,4.8-3.077v-.152c0-1.082-.573-1.624-1.706-1.624a3.847,3.847,0,0,0-2.147.61l-.371-1.2a5.255,5.255,0,0,1,2.822-.711c2.147,0,3.232,1.133,3.232,3.4v3.027a12.407,12.407,0,0,0,.119,1.962Zm-.251-4.093c-2.029,0-3.047.491-3.047,1.657a1.165,1.165,0,0,0,1.253,1.284,1.749,1.749,0,0,0,1.794-1.673Zm10.65,4.093-.085-1.319H250.8a2.756,2.756,0,0,1-2.639,1.506c-1.982,0-3.449-1.743-3.449-4.194,0-2.57,1.522-4.381,3.6-4.381a2.47,2.47,0,0,1,2.318,1.117h.037V26.219H252.5v9.774c0,.795.019,1.539.068,2.215H250.94Zm-.27-4.836a1.988,1.988,0,0,0-1.924-2.131c-1.354,0-2.182,1.2-2.182,2.891,0,1.657.859,2.792,2.146,2.792a2.051,2.051,0,0,0,1.961-2.182v-1.37Zm13.421,5.022a3.911,3.911,0,0,1-3.957-4.227,4,4,0,0,1,4.093-4.346,3.88,3.88,0,0,1,3.958,4.212,4.025,4.025,0,0,1-4.094,4.362Zm.068-7.239c-1.318,0-2.163,1.234-2.163,2.959,0,1.692.863,2.926,2.146,2.926s2.147-1.319,2.147-2.961C266.293,32.407,265.447,31.156,264.159,31.156Zm13.85,7.052h-1.828V33.489c0-1.453-.558-2.182-1.658-2.182A1.9,1.9,0,0,0,272.7,33.32v4.888H270.87V32.339c0-.727-.017-1.506-.068-2.351h1.607l.085,1.269h.051a2.952,2.952,0,0,1,2.6-1.438c1.726,0,2.86,1.319,2.86,3.466ZM290.3,31.36h-2.01v3.99c0,1.016.352,1.523,1.063,1.523a3.6,3.6,0,0,0,.811-.085l.051,1.387a4.047,4.047,0,0,1-1.417.2c-1.44,0-2.3-.795-2.3-2.875V31.36h-1.2V29.99h1.2V28.485l1.794-.542v2.046h2.01V31.36Zm9.67,6.848h-1.825V33.524c0-1.471-.556-2.215-1.658-2.215a1.791,1.791,0,0,0-1.828,1.945v4.954h-1.825V26.219h1.825v4.937h.037a2.771,2.771,0,0,1,2.472-1.337c1.74,0,2.8,1.352,2.8,3.5v4.888Zm9.907-3.67H304.4a2.359,2.359,0,0,0,2.59,2.434,6.174,6.174,0,0,0,2.215-.389l.284,1.269a6.863,6.863,0,0,1-2.758.507,3.815,3.815,0,0,1-4.093-4.142c0-2.52,1.558-4.414,3.887-4.414,2.1,0,3.418,1.556,3.418,3.907a3.518,3.518,0,0,1-.063.828Zm-1.675-1.3c0-1.269-.64-2.164-1.808-2.164a2.167,2.167,0,0,0-2,2.164Z" transform="translate(-174.806 -26.219)" fill="#fff"/>
  </g>
</svg>
