<svg xmlns="http://www.w3.org/2000/svg" width="80" height="80" viewBox="0 0 80 80">
  <g id="Group_178" data-name="Group 178" transform="translate(-172 -131)">
    <circle id="Ellipse_4" data-name="Ellipse 4" cx="40" cy="40" r="40" transform="translate(172 131)" fill="#005daa"/>
    <path id="lock-svgrepo-com" d="M682.462,812.874h-.948V807.69a11.69,11.69,0,0,0-23.381,0v5.183h-.949a4.461,4.461,0,0,0-4.461,4.461v13.85a9.072,9.072,0,0,0,9.072,9.072h16.056a9.072,9.072,0,0,0,9.072-9.072v-13.85A4.461,4.461,0,0,0,682.462,812.874Zm-10.978,13.784v5.634a1.661,1.661,0,0,1-3.322,0v-5.634a3.8,3.8,0,1,1,3.322,0Zm5.8-13.784H662.362V807.69a7.462,7.462,0,1,1,14.925,0Z" transform="translate(-457.824 -647.785)" fill="#fff"/>
  </g>
</svg>
