<svg xmlns="http://www.w3.org/2000/svg" width="27.708" height="31.666" viewBox="0 0 27.708 31.666">
  <g id="bag-x-svgrepo-com" transform="translate(-1)">
    <path id="Path_13475" data-name="Path 13475" d="M14.854,1.979A4.948,4.948,0,0,1,19.8,6.927v.99h-9.9v-.99A4.948,4.948,0,0,1,14.854,1.979Zm6.927,5.937v-.99a6.927,6.927,0,1,0-13.854,0v.99H1V27.708a3.958,3.958,0,0,0,3.958,3.958H24.75a3.958,3.958,0,0,0,3.958-3.958V7.917ZM2.979,9.9h23.75V27.708a1.979,1.979,0,0,1-1.979,1.979H4.958a1.979,1.979,0,0,1-1.979-1.979Z" fill="#989898"/>
    <g id="Polygon_1" data-name="Polygon 1" transform="translate(10.587 15.102)" fill="#989898">
      <path d="M 8.145074844360352 7.5 L 0.8549256324768066 7.5 L 4.5 1.019867777824402 L 8.145074844360352 7.5 Z" stroke="none"/>
      <path d="M 4.5 2.039735317230225 L 1.709851264953613 7 L 7.290148735046387 7 L 4.5 2.039735317230225 M 4.5 0 L 9 8 L 0 8 L 4.5 0 Z" stroke="none" fill="#989898"/>
    </g>
  </g>
</svg>
