<svg xmlns="http://www.w3.org/2000/svg" width="45.916" height="53.568" viewBox="0 0 45.916 53.568">
  <path id="user-svgrepo-com" d="M4,51.725a3.871,3.871,0,0,0,1.1,2.755,3.449,3.449,0,0,0,2.755,1.1H46.118a3.8,3.8,0,0,0,2.694-1.1,3.449,3.449,0,0,0,1.1-2.755,13.335,13.335,0,0,0-1.286-5.571,18.357,18.357,0,0,0-3.367-5.02,31.458,31.458,0,0,0-4.775-4.1,22.282,22.282,0,0,0-5.51-2.877A15.168,15.168,0,0,0,40.3,28.584a15.015,15.015,0,0,0,1.959-7.469v-3.8A14.755,14.755,0,0,0,37.792,6.485,14.755,14.755,0,0,0,26.957,2.016,14.755,14.755,0,0,0,16.121,6.485,14.755,14.755,0,0,0,11.652,17.32v3.8a14.8,14.8,0,0,0,1.959,7.469,15.819,15.819,0,0,0,5.326,5.571,23.691,23.691,0,0,0-5.51,2.877,30.834,30.834,0,0,0-4.775,4.1,17.771,17.771,0,0,0-3.367,5.02A14.386,14.386,0,0,0,4,51.725Z" transform="translate(-4 -2.016)"/>
</svg>
