<svg xmlns="http://www.w3.org/2000/svg" width="16" height="15.008" viewBox="0 0 16 15.008">
  <g id="discount-circle-svgrepo-com" transform="translate(0 -0.496)">
    <path id="Path_12590" data-name="Path 12590" d="M10.09,4.37a.62.62,0,0,0-.85.23L5.67,10.78a.62.62,0,0,0,.23.85.55.55,0,0,0,.31.08.63.63,0,0,0,.54-.31l3.57-6.18a.61.61,0,0,0-.23-.85ZM7.35,6.43A2.16,2.16,0,0,0,5.29,4.19,2.17,2.17,0,0,0,3.22,6.43,2.17,2.17,0,0,0,5.29,8.68,2.16,2.16,0,0,0,7.35,6.43Zm-2.06,1a.93.93,0,0,1-.82-1,.92.92,0,0,1,.82-1,.91.91,0,0,1,.81,1A.92.92,0,0,1,5.29,7.43Zm5.42-.11A2.16,2.16,0,0,0,8.65,9.56a2.16,2.16,0,0,0,2.06,2.25,2.17,2.17,0,0,0,2.07-2.25,2.17,2.17,0,0,0-2.07-2.24Zm0,3.24a.92.92,0,0,1-.81-1,.92.92,0,0,1,.81-1,.92.92,0,0,1,.82,1,.93.93,0,0,1-.82,1Z" fill="#727c8e"/>
    <path id="Path_12591" data-name="Path 12591" d="M8,.5A7.76,7.76,0,0,0,0,8a7.76,7.76,0,0,0,8,7.5A7.76,7.76,0,0,0,16,8,7.76,7.76,0,0,0,8,.5ZM8,14.25A6.52,6.52,0,0,1,1.25,8,6.52,6.52,0,0,1,8,1.75,6.52,6.52,0,0,1,14.75,8,6.52,6.52,0,0,1,8,14.25Z" fill="#727c8e"/>
  </g>
</svg>
