<svg xmlns="http://www.w3.org/2000/svg" width="14.089" height="17.018" viewBox="0 0 14.089 17.018">
  <path id="finished" d="M2.852,16.818A2.917,2.917,0,0,1,.76,15.941a2.683,2.683,0,0,1-.752-2.07L.791,4.4A1.213,1.213,0,0,1,2.013,3.318H3.558V3.251A3.323,3.323,0,0,1,6.943,0a3.324,3.324,0,0,1,3.385,3.251v.067h1.545A1.212,1.212,0,0,1,13.1,4.4l.782,9.464a2.684,2.684,0,0,1-.751,2.072,2.919,2.919,0,0,1-2.093.877ZM1.814,4.48l-.782,9.467a1.7,1.7,0,0,0,.481,1.324,1.844,1.844,0,0,0,1.34.561h8.182a1.844,1.844,0,0,0,1.34-.561,1.694,1.694,0,0,0,.481-1.326l-.782-9.464a.2.2,0,0,0-.2-.179H10.328V5.516a.513.513,0,0,1-1.026,0V4.3H4.583V5.516a.513.513,0,0,1-1.025,0V4.3H2.013A.2.2,0,0,0,1.814,4.48Zm2.77-1.23v.067H9.3V3.251A2.316,2.316,0,0,0,6.943.985,2.317,2.317,0,0,0,4.583,3.251ZM5.7,11.8,4.244,10.4a.559.559,0,0,1,0-.814.618.618,0,0,1,.848,0l1.029.988L8.8,8.01a.615.615,0,0,1,.847,0,.559.559,0,0,1,0,.814L6.543,11.8a.617.617,0,0,1-.848,0Z" transform="translate(0.101 0.1)" fill="#727c8e" stroke="#727c8e" stroke-width="0.2"/>
</svg>
