<svg xmlns="http://www.w3.org/2000/svg" width="17.477" height="17.7" viewBox="0 0 17.477 17.7">
  <g id="shop-2-svgrepo-com" transform="translate(0.736 0.75)">
    <path id="Path_12504" data-name="Path 12504" d="M9.5,20.455v-2.43a3.01,3.01,0,0,1,.163-1.418,1.215,1.215,0,0,1,.445-.445A3.009,3.009,0,0,1,11.525,16a3.009,3.009,0,0,1,1.418.163,1.215,1.215,0,0,1,.445.445,3.009,3.009,0,0,1,.163,1.418v2.43" transform="translate(-3.523 -4.66)" fill="none" stroke="#727c8e" stroke-linecap="round" stroke-width="1.5"/>
    <path id="Path_12505" data-name="Path 12505" d="M17.58,22H7.86M3,22H5.025" transform="translate(-2.288 -5.8)" fill="none" stroke="#727c8e" stroke-linecap="round" stroke-width="1.5"/>
    <path id="Path_12506" data-name="Path 12506" d="M19,20.67V15" transform="translate(-5.328 -4.47)" fill="none" stroke="#727c8e" stroke-linecap="round" stroke-width="1.5"/>
    <path id="Path_12507" data-name="Path 12507" d="M5,20.67V15" transform="translate(-2.668 -4.47)" fill="none" stroke="#727c8e" stroke-linecap="round" stroke-width="1.5"/>
    <path id="Path_12508" data-name="Path 12508" d="M10.123,2H6.456A3.578,3.578,0,0,0,4.6,2.242c-.391.242-.609.678-1.045,1.549L2.421,6.665a2.043,2.043,0,0,0-.05,2.007,1.62,1.62,0,0,0,2.893-1,1.62,1.62,0,0,0,3.24,0,1.62,1.62,0,0,0,3.24,0,1.62,1.62,0,0,0,3.24,0,1.62,1.62,0,0,0,2.893,1,2.043,2.043,0,0,0-.05-2.007L16.689,3.791c-.436-.871-.654-1.307-1.045-1.549A3.578,3.578,0,0,0,13.791,2h-.428" transform="translate(-2.121 -2)" fill="none" stroke="#727c8e" stroke-linecap="round" stroke-linejoin="round" stroke-width="1.5"/>
  </g>
</svg>
