<svg xmlns="http://www.w3.org/2000/svg" width="20.003" height="18.882" viewBox="0 0 20.003 18.882">
  <path id="user-multiple-svgrepo-com" d="M19.147,19.647h1.418a3.316,3.316,0,0,0,.909-.059A1.676,1.676,0,0,0,22.5,17.877a5.584,5.584,0,0,0-.241-1.057,6.578,6.578,0,0,0-.28-.888,2.156,2.156,0,0,0-1.471-1.276,4,4,0,0,0-.788-.039l-2.807.039m-.905-2.051A3.353,3.353,0,1,0,16.6,6.35m-1.92,2.12A4.471,4.471,0,1,1,10.206,4,4.471,4.471,0,0,1,14.676,8.471ZM7.208,15.176h6a5.342,5.342,0,0,1,1.05.052,2.874,2.874,0,0,1,1.961,1.7,8.737,8.737,0,0,1,.373,1.183,7.448,7.448,0,0,1,.321,1.409A2.235,2.235,0,0,1,15.543,21.8a4.419,4.419,0,0,1-1.212.079H6.08A4.419,4.419,0,0,1,4.868,21.8,2.235,2.235,0,0,1,3.5,19.522a7.444,7.444,0,0,1,.321-1.409A8.746,8.746,0,0,1,4.2,16.93a2.874,2.874,0,0,1,1.961-1.7A5.343,5.343,0,0,1,7.208,15.176Z" transform="translate(-2.998 -3.5)" fill="none" stroke="#464455" stroke-linecap="round" stroke-linejoin="round" stroke-width="1"/>
</svg>
