<svg id="Icon" xmlns="http://www.w3.org/2000/svg" width="38" height="38" viewBox="0 0 38 38">
  <g id="Icon.BG" fill="#fff" stroke="#00a5d3" stroke-width="1">
    <circle cx="19" cy="19" r="19" stroke="none"/>
    <circle cx="19" cy="19" r="18.5" fill="none"/>
  </g>
  <g id="Group_17331" data-name="Group 17331" transform="translate(5.691 6.238)">
    <path id="Path_12750" data-name="Path 12750" d="M191.8,193.713a1.1,1.1,0,0,0-.846.345,1.154,1.154,0,0,0-.28.774,1.16,1.16,0,0,0,1.985.788,1.155,1.155,0,0,0,.28-.774A1.088,1.088,0,0,0,191.8,193.713Z" transform="translate(-176.144 -179.49)" fill="#00a5d3"/>
    <path id="Path_12751" data-name="Path 12751" d="M134.189,132.614a1.1,1.1,0,0,0,.848-.344,1.147,1.147,0,0,0,.28-.771,1.088,1.088,0,0,0-1.142-1.129,1.077,1.077,0,0,0-1.158,1.115A1.1,1.1,0,0,0,134.189,132.614Z" transform="translate(-123.022 -121.127)" fill="#00a5d3"/>
    <path id="Path_12752" data-name="Path 12752" d="M71.665,62.745a8.919,8.919,0,1,0,8.919,8.919A8.929,8.929,0,0,0,71.665,62.745Zm-3.86,5a2.135,2.135,0,0,1,1.625-.662,2.076,2.076,0,0,1,2.18,2.11,2.124,2.124,0,0,1-.548,1.448,2.15,2.15,0,0,1-1.632.661,2.071,2.071,0,0,1-2.171-2.11A2.129,2.129,0,0,1,67.8,67.743Zm1.339,7.547a.6.6,0,0,1-.393.176h-.92c-.13,0-.165-.079-.078-.175l6.49-7.216a.622.622,0,0,1,.394-.18l.911-.017c.13,0,.165.075.078.171Zm6.39.306a2.109,2.109,0,0,1-1.6.649A2.032,2.032,0,0,1,71.8,74.176a2.023,2.023,0,0,1,2.129-2.07,2.036,2.036,0,0,1,2.139,2.069A2.084,2.084,0,0,1,75.533,75.6Z" transform="translate(-58.276 -58.821)" fill="#00a5d3"/>
  </g>
</svg>
